<?xml version="1.0" encoding="utf-8"?>
<!-- Generator: Adobe Illustrator 19.0.0, SVG Export Plug-In . SVG Version: 6.00 Build 0)  -->
<svg version="1.1" id="Layer_1" xmlns="http://www.w3.org/2000/svg" xmlns:xlink="http://www.w3.org/1999/xlink" x="0px" y="0px"
	 viewBox="0 135.1 500 231.9" style="enable-background:new 0 135.1 500 231.9;" xml:space="preserve">
<style type="text/css">
	.st0{fill:#EB008B;}
	.st1{fill:#9B0064;}
	.st2{fill:#F7941E;}
	.st3{fill:#92278F;}
	.st4{fill:#EC008C;}
	.st5{fill:#F9ED32;}
	.st6{fill:#00A79D;}
</style>
<g id="Layer_1_2_">
	<polygon class="st0" points="742,132.2 612,27.2 698.3,27.2 	"/>
</g>
<g id="Layer_2_1_">
	<polygon id="XMLID_2_" class="st1" points="742,132.2 698.3,27.2 742,27.2 	"/>
</g>
<g>
	<rect x="-296" y="280.8" width="10.4" height="8.6"/>
	<rect x="-296" y="293.2" width="10.4" height="32.4"/>
	<path d="M-278.1,280.8h19.8c5.5,0,9.7,1.6,12.6,4.5c2.4,2.5,3.7,6,3.7,10.2v0.1c0,7.2-3.8,11.8-9.3,13.9l10.5,16h-11l-9.3-14.3
		h-7.5v14.3h-9.5L-278.1,280.8 M-258.9,302.5c4.6,0,7.3-2.6,7.3-6.3v-0.1c0-4.2-2.8-6.4-7.5-6.4h-9.4v12.9h9.6V302.5z"/>
	<rect x="-206.3" y="281" width="3.6" height="16.4"/>
	<polyline points="-197.4,281 -194.1,281 -186.4,291.1 -186.4,281 -182.9,281 -182.9,297.4 -185.9,297.4 -193.9,287 -193.9,297.4 
		-197.4,297.4 -197.4,281 	"/>
	<path d="M-178.9,295.1l2.1-2.6c1.5,1.2,3,2,4.9,2c1.5,0,2.4-0.6,2.4-1.5l0,0c0-0.9-0.6-1.4-3.3-2.1c-3.3-0.8-5.4-1.8-5.4-5l0,0
		c0-3,2.4-4.9,5.7-4.9c2.4,0,4.4,0.7,6.1,2.1l-1.9,2.7c-1.5-1-2.9-1.6-4.3-1.6c-1.4,0-2.1,0.6-2.1,1.4l0,0c0,1.1,0.7,1.4,3.5,2.2
		c3.3,0.9,5.2,2.1,5.2,4.9l0,0c0,3.3-2.5,5.1-6,5.1C-174.4,297.7-176.9,296.8-178.9,295.1"/>
	<rect x="-161.4" y="281" width="3.6" height="16.4"/>
	<path d="M-152.5,281h6.4c5.2,0,8.7,3.5,8.7,8.2l0,0c0,4.6-3.6,8.2-8.7,8.2h-6.4V281 M-148.9,284.3v9.9h2.8c3,0,4.9-2,4.9-4.9l0,0
		c0-2.9-2-4.9-4.9-4.9L-148.9,284.3L-148.9,284.3z"/>
	<polyline points="-133,281 -120.6,281 -120.6,284.2 -129.4,284.2 -129.4,287.6 -121.7,287.6 -121.7,290.8 -129.4,290.8 
		-129.4,294.2 -120.5,294.2 -120.5,297.4 -133,297.4 -133,281 	"/>
	<path d="M-206.5,309.2h7.5c2.1,0,3.7,0.6,4.8,1.7c0.9,0.9,1.4,2.2,1.4,3.8l0,0c0,2.6-1.4,4.3-3.5,5.1l4,5.9h-4.2l-3.5-5.3h-2.8v5.3
		h-3.6L-206.5,309.2 M-199.2,317.1c1.8,0,2.8-0.9,2.8-2.3l0,0c0-1.5-1.1-2.3-2.8-2.3h-3.6v4.7h3.6V317.1z"/>
	<polyline points="-188.4,309.2 -176,309.2 -176,312.4 -184.8,312.4 -184.8,315.7 -177,315.7 -177,318.9 -184.8,318.9 -184.8,322.4 
		-175.9,322.4 -175.9,325.6 -188.4,325.6 -188.4,309.2 	"/>
	<polyline points="-167.7,312.5 -172.7,312.5 -172.7,309.2 -159.1,309.2 -159.1,312.5 -164.1,312.5 -164.1,325.6 -167.7,325.6 
		-167.7,312.5 	"/>
	<path d="M-151.6,309h3.3l7,16.5h-3.8l-1.5-3.7h-6.9l-1.5,3.7h-3.7L-151.6,309 M-147.8,318.7l-2.2-5.3l-2.2,5.3H-147.8z"/>
	<rect x="-137.4" y="309.2" width="3.6" height="16.4"/>
	<polyline points="-128.5,309.2 -124.9,309.2 -124.9,322.3 -116.7,322.3 -116.7,325.6 -128.5,325.6 -128.5,309.2 	"/>
</g>
<polygon class="st2" points="-219.9,270.3 -219.9,295.3 -230.3,287.8 -230.3,270.3 "/>
<polygon class="st3" points="-219.9,295.3 -219.9,359.9 -230.3,346.4 -244.6,346.4 -267.2,336 -230.3,336 -230.3,287.8 "/>
<polygon class="st4" points="-244.6,346.4 -306.4,346.4 -306.4,336 -267.2,336 "/>
<polygon class="st5" points="-247.1,259.9 -266.8,270.3 -306.4,270.3 -306.4,291.3 -316.9,296.8 -316.9,259.9 "/>
<polygon class="st6" points="-230.3,259.9 -230.3,270.3 -266.8,270.3 -247.1,259.9 "/>
<polygon class="st6" points="-306.4,291.3 -306.4,336 -330.3,336 -316.9,325.6 -316.9,296.8 "/>
<polygon class="st5" points="0,135.3 0,306.6 171.5,135.1 "/>
<polygon class="st6" points="386.8,134.9 154.7,367 0,367 0,306.6 171.5,135.1 "/>
<polygon class="st2" points="300.8,220.9 500,297.6 500,135.1 386.8,134.9 "/>
<polygon class="st3" points="300.8,220.9 500,297.6 500,367 482,367 250,271.7 "/>
<polygon class="st4" points="154.7,367 250,271.7 482,367 "/>
</svg>
