<svg id="Layer_1" data-name="Layer 1" xmlns="http://www.w3.org/2000/svg" viewBox="0 0 500 232.35"><defs><style>.cls-1{fill:#91278f;}.cls-2{fill:#601a60;}.cls-3{fill:#eb008b;}.cls-4{fill:#9b0064;}.cls-5{fill:#00a69d;}.cls-6{fill:#00726a;}.cls-7{fill:#f6931d;}.cls-8{fill:#b76f20;}</style></defs><title>about-layer</title><g id="Layer_1-2" data-name="Layer 1"><polygon class="cls-1" points="362.63 0 500 148.9 500 74.9 362.63 0"/></g><g id="Layer_2" data-name="Layer 2"><polygon class="cls-2" points="362.63 0 500 0 500 74.9 362.63 0"/></g><g id="Layer_1-3" data-name="Layer 1"><polygon class="cls-3" points="105 0.45 0 130.45 0 44.15 105 0.45"/></g><g id="Layer_2-2" data-name="Layer 2"><polygon id="_Path_" data-name="&lt;Path&gt;" class="cls-4" points="105 0.45 0 44.15 0 0.45 105 0.45"/></g><polygon class="cls-5" points="500 0.45 421.39 196.45 500 134.45 500 0.45"/><polygon class="cls-5" points="355 232.35 421.39 196.45 500 232.35 355 232.35"/><polygon class="cls-6" points="500 134.45 421.39 196.45 500 232.35 500 134.45"/><g id="Layer_1-4" data-name="Layer 1"><polygon class="cls-7" points="61.3 232.35 77.88 142.95 131 232.35 61.3 232.35"/></g><g id="Layer_1-5" data-name="Layer 1"><polygon class="cls-7" points="0 88.35 77.88 142.95 0 175.85 0 88.35"/></g><polygon class="cls-8" points="61.3 232.35 77.88 142.95 0 175.85 0 232.35 61.3 232.35"/></svg>