<?xml version="1.0" encoding="utf-8"?>
<!-- Generator: Adobe Illustrator 19.0.0, SVG Export Plug-In . SVG Version: 6.00 Build 0)  -->
<svg version="1.1" xmlns="http://www.w3.org/2000/svg" xmlns:xlink="http://www.w3.org/1999/xlink" x="0px" y="0px"
	 viewBox="-658 431 32 32" style="enable-background:new -658 431 32 32;" xml:space="preserve">
<style type="text/css">
	.st0{fill:#FCB131;}
	.st1{clip-path:url(#SVGID_2_);}
	.st2{fill:url(#path10758_1_);}
	.st3{clip-path:url(#SVGID_4_);}
	.st4{fill:url(#path10782_1_);}
	.st5{fill:#FFD596;}
	.st6{clip-path:url(#SVGID_6_);}
	.st7{fill:url(#path10808_1_);}
	.st8{clip-path:url(#SVGID_8_);}
	.st9{fill:url(#path10832_1_);}
	.st10{clip-path:url(#SVGID_10_);}
	.st11{fill:url(#path10856_1_);}
	.st12{fill:#EE3224;}
	.st13{clip-path:url(#SVGID_12_);}
	.st14{fill:url(#path10882_1_);}
	.st15{clip-path:url(#SVGID_14_);}
	.st16{fill:url(#path10906_1_);}
	.st17{clip-path:url(#SVGID_16_);}
	.st18{fill:url(#path10930_1_);}
</style>
<g id="Layer_1">
</g>
<g id="layer1">
	<g>
		<path id="path10734" class="st0" d="M-630.8804,443.8224c0-2.9055-2.0354-5.3354-4.7563-5.944
			c1.7044,1.4169,2.7921,3.5529,2.7921,5.944c0,2.3908-1.0877,4.526-2.7921,5.9427
			C-632.9158,449.1566-630.8804,446.7279-630.8804,443.8224"/>
		<g id="g10736">
			<g>
				<defs>
					<polyline id="SVGID_1_" points="-637.3405,445.4318 -634.7413,451.1356 -643.8408,455.2825 -646.4401,449.5787 					"/>
				</defs>
				<clipPath id="SVGID_2_">
					<use xlink:href="#SVGID_1_"  style="overflow:visible;"/>
				</clipPath>
				<g id="g10738" class="st1">
					<g id="g10744">
						<g id="g10750">
							
								<linearGradient id="path10758_1_" gradientUnits="userSpaceOnUse" x1="-1041.9761" y1="746.8568" x2="-1041.8557" y2="746.8568" gradientTransform="matrix(15.2114 33.3784 33.3784 -15.2114 -9720.4209 46588.0898)">
								<stop  offset="0" style="stop-color:#FFFCF7"/>
								<stop  offset="1" style="stop-color:#FFEED6"/>
							</linearGradient>
							<path id="path10758" class="st2" d="M-638.1749,449.7934c-0.7391,0.2955-1.5463,0.459-2.392,0.459
								c-1.3204,0-2.5486-0.3988-3.5698-1.0818c-0.4394,0.2404-0.912,0.4274-1.408,0.5538
								c1.3438,1.1347,3.0811,1.8192,4.9778,1.8192c1.8746,0,3.5925-0.6682,4.9302-1.7786
								c-0.429,0.0963-0.8765,0.1473-1.3337,0.1473C-637.3839,449.9124-637.7871,449.8711-638.1749,449.7934"/>
						</g>
					</g>
				</g>
			</g>
		</g>
		<g id="g10760">
			<g>
				<defs>
					<rect id="SVGID_3_" x="-645.5447" y="436.1004" width="9.908" height="2.373"/>
				</defs>
				<clipPath id="SVGID_4_">
					<use xlink:href="#SVGID_3_"  style="overflow:visible;"/>
				</clipPath>
				<g id="g10762" class="st3">
					<g id="g10768">
						<g id="g10774">
							
								<linearGradient id="path10782_1_" gradientUnits="userSpaceOnUse" x1="-1045.6654" y1="747.5273" x2="-1045.545" y2="747.5273" gradientTransform="matrix(0 -19.7073 -19.7073 0 14091.1533 -20168.7676)">
								<stop  offset="0" style="stop-color:#FFFCF7"/>
								<stop  offset="1" style="stop-color:#FFE9C9"/>
							</linearGradient>
							<path id="path10782" class="st4" d="M-640.5669,437.3916c0.8457,0,1.6528,0.1636,2.392,0.4594
								c0.3878-0.0775,0.791-0.1196,1.2045-0.1196c0.4572,0,0.9047,0.052,1.3337,0.147c-1.3376-1.1101-3.0556-1.778-4.9302-1.778
								c-1.8967,0-3.634,0.6842-4.9778,1.8195c0.496,0.127,0.9686,0.3145,1.408,0.5535
								C-643.1155,437.7907-641.8873,437.3916-640.5669,437.3916"/>
						</g>
					</g>
				</g>
			</g>
		</g>
		<path id="path10784" class="st5" d="M-632.8446,443.8224c0-2.3911-1.0877-4.527-2.7921-5.944
			c-0.429-0.095-0.8765-0.147-1.3337-0.147c-0.4136,0-0.8167,0.0421-1.2045,0.1196c2.3669,0.9489,4.0385,3.2648,4.0385,5.9714
			c0,2.7066-1.6716,5.0221-4.0385,5.971c0.3878,0.0777,0.7909,0.119,1.2045,0.119c0.4572,0,0.9047-0.051,1.3337-0.1473
			C-633.9323,448.3484-632.8446,446.2131-632.8446,443.8224"/>
		<g id="g10786">
			<g>
				<defs>
					<polyline id="SVGID_5_" points="-645.6194,449.0083 -641.6733,444.3054 -636.6921,448.4852 -640.6382,453.1882 					"/>
				</defs>
				<clipPath id="SVGID_6_">
					<use xlink:href="#SVGID_5_"  style="overflow:visible;"/>
				</clipPath>
				<g id="g10788" class="st6">
					<g id="g10794">
						<g id="g10800">
							
								<linearGradient id="path10808_1_" gradientUnits="userSpaceOnUse" x1="-1041.4872" y1="747.3763" x2="-1041.3668" y2="747.3763" gradientTransform="matrix(17.9117 -21.3463 -21.3463 -17.9117 33966.293 -8394.3496)">
								<stop  offset="0" style="stop-color:#FFF7F4"/>
								<stop  offset="1" style="stop-color:#FBCCB5"/>
							</linearGradient>
							<path id="path10808" class="st7" d="M-642.0118,447.2412c-0.544,0.8003-1.2725,1.4642-2.1248,1.9295
								c1.0212,0.683,2.2493,1.0818,3.5698,1.0818c0.8457,0,1.6528-0.1635,2.392-0.459
								C-639.765,449.4742-641.1321,448.5366-642.0118,447.2412"/>
						</g>
					</g>
				</g>
			</g>
		</g>
		<g id="g10810">
			<g>
				<defs>
					<rect id="SVGID_7_" x="-644.1367" y="437.3916" width="5.9617" height="3.0114"/>
				</defs>
				<clipPath id="SVGID_8_">
					<use xlink:href="#SVGID_7_"  style="overflow:visible;"/>
				</clipPath>
				<g id="g10812" class="st8">
					<g id="g10818">
						<g id="g10824">
							
								<linearGradient id="path10832_1_" gradientUnits="userSpaceOnUse" x1="-1038.8087" y1="746.7357" x2="-1038.6882" y2="746.7357" gradientTransform="matrix(0 25.0094 25.0094 0 -19316.5664 26417.373)">
								<stop  offset="0" style="stop-color:#F8B091"/>
								<stop  offset="1" style="stop-color:#F37C55"/>
							</linearGradient>
							<path id="path10832" class="st9" d="M-644.1367,438.4734c0.8524,0.4655,1.5808,1.1298,2.1248,1.9296
								c0.8798-1.2952,2.2469-2.2328,3.8369-2.552c-0.7391-0.2958-1.5463-0.4594-2.392-0.4594
								C-641.8873,437.3916-643.1155,437.7907-644.1367,438.4734"/>
						</g>
					</g>
				</g>
			</g>
		</g>
		<g id="g10834">
			<g>
				<defs>
					<polyline id="SVGID_9_" points="-646.379,447.8946 -640.7597,434.9712 -629.7694,439.7498 -635.3886,452.6731 					"/>
				</defs>
				<clipPath id="SVGID_10_">
					<use xlink:href="#SVGID_9_"  style="overflow:visible;"/>
				</clipPath>
				<g id="g10836" class="st10">
					<g id="g10842">
						<g id="g10848">
							
								<linearGradient id="path10856_1_" gradientUnits="userSpaceOnUse" x1="-1042.0002" y1="747.119" x2="-1041.8799" y2="747.119" gradientTransform="matrix(36.7265 -84.4652 -84.4652 -36.7265 100733.8672 -60124.8555)">
								<stop  offset="0" style="stop-color:#FDC678"/>
								<stop  offset="1" style="stop-color:#EE4022"/>
							</linearGradient>
							<path id="path10856" class="st11" d="M-642.0118,440.403c0.663,0.9748,1.0501,2.1512,1.0501,3.4194
								c0,1.2681-0.3871,2.4446-1.0501,3.4188c0.8798,1.2954,2.2469,2.233,3.8369,2.5522c2.3669-0.9489,4.0385-3.2644,4.0385-5.971
								c0-2.7066-1.6716-5.0225-4.0385-5.9714C-639.765,438.1701-641.1321,439.1078-642.0118,440.403"/>
						</g>
					</g>
				</g>
			</g>
		</g>
		<path id="path10858" class="st12" d="M-648.2882,443.8224c0-2.3675,1.0658-4.4861,2.7435-5.9025
			c-0.4822-0.1224-0.9865-0.1885-1.5071-0.1885c-3.3634,0-6.09,2.7269-6.09,6.0909c0,3.3637,2.7266,6.09,6.09,6.09
			c0.5206,0,1.0249-0.0655,1.5071-0.1879C-647.2224,448.3082-648.2882,446.1895-648.2882,443.8224"/>
		<g id="g10860">
			<g>
				<defs>
					<rect id="SVGID_11_" x="-648.2882" y="437.9199" width="4.1516" height="11.8046"/>
				</defs>
				<clipPath id="SVGID_12_">
					<use xlink:href="#SVGID_11_"  style="overflow:visible;"/>
				</clipPath>
				<g id="g10862" class="st13">
					<g id="g10868">
						<g id="g10874">
							
								<linearGradient id="path10882_1_" gradientUnits="userSpaceOnUse" x1="-1040.6904" y1="746.04" x2="-1040.5699" y2="746.04" gradientTransform="matrix(34.479 0 0 -34.479 35233.6758 26166.5332)">
								<stop  offset="0" style="stop-color:#F59578"/>
								<stop  offset="1" style="stop-color:#FDE4D8"/>
							</linearGradient>
							<path id="path10882" class="st14" d="M-646.997,443.8224c0-2.231,1.1356-4.1958,2.8604-5.349
								c-0.4394-0.239-0.912-0.4265-1.408-0.5535c-1.6777,1.4163-2.7435,3.535-2.7435,5.9025c0,2.3671,1.0658,4.4858,2.7435,5.9021
								c0.496-0.1264,0.9686-0.3134,1.408-0.5538C-645.8614,448.0169-646.997,446.053-646.997,443.8224"/>
						</g>
					</g>
				</g>
			</g>
		</g>
		<g id="g10884">
			<g>
				<defs>
					<polyline id="SVGID_13_" points="-646.414,450.7728 -650.4352,439.7246 -642.5952,436.8712 -638.5738,447.9194 					"/>
				</defs>
				<clipPath id="SVGID_14_">
					<use xlink:href="#SVGID_13_"  style="overflow:visible;"/>
				</clipPath>
				<g id="g10886" class="st15">
					<g id="g10892">
						<g id="g10898">
							
								<linearGradient id="path10906_1_" gradientUnits="userSpaceOnUse" x1="-1041.9897" y1="746.9648" x2="-1041.8694" y2="746.9648" gradientTransform="matrix(-28.5528 -78.4481 -78.4481 28.5528 28203.8652 -102621.5234)">
								<stop  offset="0" style="stop-color:#FFF7F4"/>
								<stop  offset="1" style="stop-color:#F16548"/>
							</linearGradient>
							<path id="path10906" class="st16" d="M-642.0118,447.2412c-0.662-0.9742-1.05-2.1508-1.05-3.4188
								c0-1.2682,0.388-2.4446,1.05-3.4194c-0.544-0.7998-1.2725-1.4641-2.1248-1.9296c-1.7247,1.1531-2.8604,3.118-2.8604,5.349
								c0,2.2306,1.1356,4.1945,2.8604,5.3483C-643.2843,448.7054-642.5558,448.0415-642.0118,447.2412"/>
						</g>
					</g>
				</g>
			</g>
		</g>
		<g id="g10908">
			<g>
				<defs>
					<polyline id="SVGID_15_" points="-643.4193,440.4217 -640.9676,440.2932 -640.6045,447.2224 -643.0561,447.3509 					"/>
				</defs>
				<clipPath id="SVGID_16_">
					<use xlink:href="#SVGID_15_"  style="overflow:visible;"/>
				</clipPath>
				<g id="g10910" class="st17">
					<g id="g10916">
						<g id="g10922">
							
								<linearGradient id="path10930_1_" gradientUnits="userSpaceOnUse" x1="-1041.702" y1="745.1537" x2="-1041.5817" y2="745.1537" gradientTransform="matrix(17.5727 -0.9209 -0.9209 -17.5727 18348.6699 12578.9355)">
								<stop  offset="0" style="stop-color:#FBD1C0"/>
								<stop  offset="1" style="stop-color:#F7A185"/>
							</linearGradient>
							<path id="path10930" class="st18" d="M-642.0118,447.2412c0.663-0.9742,1.0501-2.1508,1.0501-3.4188
								c0-1.2682-0.3871-2.4446-1.0501-3.4194c-0.662,0.9748-1.05,2.1512-1.05,3.4194
								C-643.0619,445.0904-642.6739,446.267-642.0118,447.2412"/>
						</g>
					</g>
				</g>
			</g>
		</g>
		<path class="st0" d="M-635.2757,450.1584h0.0786l0.0726,0.1879l0.0717-0.1879h0.0783v0.278h-0.0503v-0.2121h-0.0013
			l-0.0786,0.2121h-0.0407l-0.0783-0.2121h-0.0016v0.2121h-0.0503V450.1584z M-635.4775,450.206h-0.0845v-0.0476h0.2205v0.0476
			h-0.0845v0.2303h-0.0514"/>
		<path d="M-628.6549,454.6128c-0.5099,0-0.6074,0.5163-0.6074,0.9235c0,0.4086,0.1027,0.9476,0.6131,0.9476
			c0.4868,0,0.6123-0.5554,0.6123-0.9476C-628.0369,455.1401-628.1624,454.6128-628.6549,454.6128 M-627.976,456.9652l-0.028-0.464
			c-0.1753,0.3567-0.5093,0.5276-0.9007,0.5276c-0.8724,0-1.1953-0.7324-1.1953-1.4965c0-0.7605,0.3345-1.4692,1.1901-1.4692
			c0.357,0,0.7137,0.1916,0.8555,0.527v-1.7116h0.7823v3.293c0,0.3235,0.0042,0.5634,0.0221,0.7937H-627.976z M-630.3547,454.7885
			c-0.08-0.0272-0.1649-0.0388-0.2439-0.0388c-0.5275,0-0.7025,0.5043-0.7025,0.9464v1.2691h-0.7825v-2.2103
			c0-0.2104-0.0056-0.4192-0.028-0.6302h0.7368l0.017,0.5504c0.1306-0.3115,0.4135-0.6177,0.7992-0.6177
			c0.079,0,0.1512,0.0055,0.226,0.0273L-630.3547,454.7885z M-633.4139,455.6106h-0.1027c-0.3966,0-1.0134,0.0462-1.0134,0.5391
			c0,0.277,0.2327,0.3907,0.4703,0.3907c0.4758,0,0.6458-0.369,0.6458-0.7874V455.6106z M-633.3911,456.9652l-0.0176-0.4425
			c-0.1918,0.3072-0.5444,0.5061-0.9064,0.5061c-0.5216,0-0.9631-0.2559-0.9631-0.8238c0-0.753,0.7254-1.0089,1.5245-1.0089
			c0.1012,0,0.2319,0.0068,0.3398,0.0129v-0.0975c0-0.3973-0.2502-0.567-0.6631-0.567c-0.2892,0-0.5948,0.0682-0.8615,0.2272
			l-0.0331-0.527c0.2939-0.1024,0.6854-0.1817,0.9957-0.1817c0.765,0,1.3149,0.2727,1.3149,1.1054v1.1279
			c0,0.2899,0.0059,0.4766,0.0289,0.6688H-633.3911z M-636.5732,457.0288c-1.2176,0-2.0671-0.698-2.0671-1.9511
			c0-1.185,0.9126-1.9502,2.0671-1.9502c0.3005,0,0.6639,0.0514,0.9468,0.1369l-0.0356,0.6283
			c-0.2313-0.0965-0.5253-0.1532-0.7806-0.1532c-0.8046,0-1.3202,0.5498-1.3202,1.3382c0,0.8103,0.4825,1.3383,1.3042,1.3383
			c0.2767,0,0.5543-0.0461,0.8092-0.1586l0.0336,0.6125C-635.8981,456.9831-636.2615,457.0288-636.5732,457.0288
			 M-639.0605,454.7885c-0.079-0.0272-0.1639-0.0388-0.2433-0.0388c-0.5272,0-0.7022,0.5043-0.7022,0.9464v1.2691h-0.7817v-2.2103
			c0-0.2104-0.0059-0.4192-0.0289-0.6302h0.737l0.0173,0.5504c0.1293-0.3115,0.4145-0.6177,0.798-0.6177
			c0.0803,0,0.1528,0.0055,0.2273,0.0273L-639.0605,454.7885z M-642.5463,454.5345c-0.4354,0-0.6171,0.4522-0.6171,0.7865h1.1728
			C-641.9906,454.9637-642.1152,454.5345-642.5463,454.5345 M-643.1634,455.741c0.0055,0.4951,0.3677,0.7994,0.8502,0.7994
			c0.2718,0,0.6175-0.0615,0.8548-0.1927l0.0345,0.528c-0.3179,0.112-0.7086,0.1531-1.0474,0.1531
			c-0.9532,0-1.4686-0.5565-1.4686-1.4965c0-0.8463,0.5664-1.4692,1.3881-1.4692c0.9124,0,1.2752,0.6405,1.2752,1.5027v0.1752
			H-643.1634z M-644.8913,457.0288c-0.6466,0-0.8056-0.4148-0.8056-1.0095v-1.3838h-0.5101v-0.516h0.5101v-0.5787l0.7819-0.254
			v0.8327h0.6344v0.516h-0.6344v1.3939c0,0.2393,0.0621,0.4318,0.3405,0.4318c0.107,0,0.2147-0.0228,0.3102-0.0624l0.0237,0.5215
			C-644.4435,456.9877-644.6772,457.0288-644.8913,457.0288 M-647.6674,457.0288c-0.3217,0-0.6445-0.0457-0.9498-0.142
			l0.0328-0.5443c0.25,0.1298,0.5664,0.198,0.8496,0.198c0.2611,0,0.5388-0.0903,0.5388-0.3622c0-0.579-1.433-0.3472-1.433-1.2709
			c0-0.6408,0.6848-0.8499,1.206-0.8499c0.2783,0,0.5726,0.0513,0.8376,0.1297l-0.0332,0.5046
			c-0.227-0.0897-0.5037-0.1472-0.7528-0.1472c-0.2158,0-0.5153,0.0575-0.5153,0.3404c0,0.4539,1.4329,0.2666,1.4329,1.2358
			C-646.4537,456.7844-647.0945,457.0288-647.6674,457.0288 M-649.8918,455.6106h-0.1027c-0.3967,0-1.0141,0.0462-1.0141,0.5391
			c0,0.277,0.2322,0.3907,0.4698,0.3907c0.4763,0,0.647-0.369,0.647-0.7874V455.6106z M-649.8704,456.9652l-0.0156-0.4425
			c-0.1937,0.3072-0.5446,0.5061-0.9068,0.5061c-0.5225,0-0.9625-0.2559-0.9625-0.8238c0-0.753,0.7245-1.0089,1.5228-1.0089
			c0.103,0,0.2319,0.0068,0.3407,0.0129v-0.0975c0-0.3973-0.2503-0.567-0.6639-0.567c-0.2891,0-0.5953,0.0682-0.8604,0.2272
			l-0.035-0.527c0.2955-0.1024,0.6854-0.1817,0.9988-0.1817c0.7632,0,1.3134,0.2727,1.3134,1.1054v1.1279
			c0,0.2899,0.0052,0.4766,0.0288,0.6688H-649.8704z M-653.0456,456.9652l-0.0055-3.2423l-1.1098,3.2423h-0.7367l-1.1101-3.2423
			v3.2423h-0.7423v-3.7825h1.2515l0.992,2.8763l0.9803-2.8763h1.2521v3.7825"/>
	</g>
</g>
</svg>
