<?xml version="1.0" standalone="no"?>
<!DOCTYPE svg PUBLIC "-//W3C//DTD SVG 20010904//EN"
 "http://www.w3.org/TR/2001/REC-SVG-20010904/DTD/svg10.dtd">
<svg version="1.0" xmlns="http://www.w3.org/2000/svg"
 width="500.000000pt" height="500.000000pt" viewBox="0 0 500.000000 500.000000"
 preserveAspectRatio="xMidYMid meet">
<metadata>
Created by potrace 1.11, written by Peter Selinger 2001-2013
</metadata>
<g transform="translate(0.000000,500.000000) scale(0.100000,-0.100000)"
fill="#000000" stroke="none">
<path d="M708 3972 c-23 -3 -28 -9 -29 -30 0 -15 -1 -142 -1 -282 l0 -255 346
-1 346 -2 0 284 0 284 -37 0 c-326 4 -604 4 -625 2z"/>
<path d="M1908 3972 l-48 -3 0 -1473 c0 -1395 1 -1474 18 -1477 9 -2 150 -4
312 -4 l295 1 3 475 2 474 238 -2 c130 -1 242 -2 247 -2 6 -1 19 -16 30 -33
10 -18 60 -96 110 -173 50 -77 178 -275 284 -440 l194 -300 361 1 c244 1 360
5 359 12 -1 6 -86 138 -189 294 -103 155 -239 362 -302 458 -63 96 -132 201
-153 232 l-39 57 79 39 c248 125 402 299 480 542 20 63 24 81 41 184 7 49 5
294 -4 348 -64 388 -309 651 -697 747 -98 24 -135 30 -245 37 -86 6 -1296 11
-1376 6z m1327 -595 c173 -29 294 -117 340 -248 22 -61 27 -94 26 -179 0 -219
-130 -361 -371 -407 -14 -3 -186 -6 -383 -6 l-357 -2 0 425 0 426 358 -2 c196
-1 371 -4 387 -7z"/>
<path d="M679 3105 c0 -27 0 -506 -1 -1064 0 -918 1 -1015 15 -1020 13 -5 558
-6 655 -2 l22 1 0 1065 c0 586 -3 1065 -7 1066 -5 0 -160 1 -346 2 l-337 2 -1
-50z"/>
</g>
</svg>
