<svg style="position: absolute; width: 0; height: 0; overflow: hidden;" version="1.1" xmlns="http://www.w3.org/2000/svg">
<defs>
<symbol id="icon-mastercard" viewBox="0 0 32 32">
<title>mastercard</title>
<path fill="#000" style="fill: var(--color1, #000)" d="M7.184 26.809v-1.427c0-0.538-0.343-0.899-0.894-0.904-0.29-0.005-0.59 0.086-0.799 0.404-0.157-0.252-0.404-0.404-0.752-0.404-0.243 0-0.481 0.071-0.666 0.338v-0.281h-0.495v2.274h0.5v-1.261c0-0.395 0.219-0.604 0.557-0.604 0.328 0 0.495 0.214 0.495 0.599v1.265h0.5v-1.261c0-0.395 0.228-0.604 0.557-0.604 0.338 0 0.5 0.214 0.5 0.599v1.265h0.5zM14.577 24.535h-0.809v-0.69h-0.499v0.69h-0.462v0.452h0.462v1.037c0 0.528 0.205 0.842 0.79 0.842 0.214 0 0.462-0.067 0.619-0.176l-0.143-0.423c-0.148 0.086-0.309 0.128-0.438 0.128-0.247 0-0.328-0.152-0.328-0.381v-1.028h0.809v-0.452zM18.797 24.478c-0.285 0-0.471 0.133-0.599 0.333v-0.276h-0.49v2.274h0.495v-1.275c0-0.376 0.162-0.585 0.485-0.585 0.1 0 0.205 0.014 0.309 0.057l0.152-0.466c-0.11-0.043-0.252-0.062-0.352-0.062v0zM12.417 24.716c-0.238-0.157-0.566-0.238-0.928-0.238-0.576 0-0.947 0.276-0.947 0.728 0 0.371 0.276 0.599 0.785 0.671l0.233 0.033c0.271 0.038 0.4 0.109 0.4 0.238 0 0.176-0.181 0.276-0.519 0.276-0.342 0-0.59-0.109-0.756-0.238l-0.233 0.385c0.271 0.2 0.614 0.295 0.985 0.295 0.656 0 1.037-0.309 1.037-0.742 0-0.4-0.3-0.609-0.794-0.68l-0.233-0.033c-0.214-0.029-0.385-0.071-0.385-0.224 0-0.166 0.162-0.267 0.433-0.267 0.29 0 0.571 0.11 0.709 0.195l0.214-0.4zM25.671 24.478c-0.285 0-0.471 0.133-0.599 0.333v-0.276h-0.49v2.274h0.495v-1.275c0-0.376 0.162-0.585 0.485-0.585 0.1 0 0.205 0.014 0.309 0.057l0.152-0.466c-0.11-0.043-0.252-0.062-0.352-0.062v0zM19.296 25.672c0 0.69 0.481 1.194 1.213 1.194 0.343 0 0.571-0.076 0.818-0.271l-0.238-0.4c-0.186 0.133-0.381 0.205-0.595 0.205-0.395-0.005-0.685-0.29-0.685-0.728s0.29-0.723 0.685-0.728c0.214 0 0.409 0.071 0.595 0.205l0.238-0.4c-0.247-0.195-0.476-0.271-0.818-0.271-0.733 0-1.213 0.504-1.213 1.194v0zM23.93 25.672v-1.137h-0.495v0.276c-0.157-0.205-0.395-0.333-0.718-0.333-0.637 0-1.137 0.5-1.137 1.194s0.5 1.194 1.137 1.194c0.323 0 0.561-0.128 0.718-0.333v0.276h0.495v-1.137zM22.089 25.672c0-0.4 0.262-0.728 0.69-0.728 0.409 0 0.685 0.314 0.685 0.728s-0.276 0.728-0.685 0.728c-0.428 0-0.69-0.328-0.69-0.728v0zM16.118 24.478c-0.666 0-1.132 0.485-1.132 1.194 0 0.723 0.485 1.194 1.166 1.194 0.343 0 0.657-0.086 0.933-0.319l-0.243-0.366c-0.19 0.152-0.433 0.238-0.661 0.238-0.319 0-0.609-0.148-0.68-0.557h1.689c0.005-0.062 0.009-0.124 0.009-0.19-0.005-0.709-0.442-1.194-1.080-1.194v0zM16.109 24.921c0.319 0 0.523 0.2 0.576 0.552h-1.18c0.052-0.328 0.252-0.552 0.604-0.552v0zM28.521 25.672v-2.050h-0.495v1.189c-0.157-0.205-0.395-0.333-0.718-0.333-0.637 0-1.137 0.5-1.137 1.194s0.5 1.194 1.137 1.194c0.323 0 0.561-0.128 0.718-0.333v0.276h0.495v-1.137zM26.68 25.672c0-0.4 0.262-0.728 0.69-0.728 0.409 0 0.685 0.314 0.685 0.728s-0.276 0.728-0.685 0.728c-0.428 0-0.69-0.328-0.69-0.728v0zM9.972 25.672v-1.137h-0.495v0.276c-0.157-0.205-0.395-0.333-0.718-0.333-0.637 0-1.137 0.5-1.137 1.194s0.499 1.194 1.137 1.194c0.323 0 0.561-0.128 0.718-0.333v0.276h0.495v-1.137zM8.13 25.672c0-0.4 0.262-0.728 0.69-0.728 0.409 0 0.685 0.314 0.685 0.728s-0.276 0.728-0.685 0.728c-0.428 0-0.69-0.328-0.69-0.728z"></path>
<path fill="#ff5f00" style="fill: var(--color2, #ff5f00)" d="M12.252 7.205h7.494v13.467h-7.494v-13.467z"></path>
<path fill="#eb001b" style="fill: var(--color3, #eb001b)" d="M12.728 13.938c0-2.732 1.279-5.165 3.271-6.734-1.457-1.147-3.295-1.831-5.293-1.831-4.73 0-8.564 3.835-8.564 8.565s3.834 8.565 8.564 8.565c1.998 0 3.836-0.684 5.293-1.831-1.992-1.568-3.271-4.002-3.271-6.734z"></path>
<path fill="#f79e1b" style="fill: var(--color4, #f79e1b)" d="M29.857 13.938c0 4.73-3.834 8.565-8.564 8.565-1.998 0-3.836-0.684-5.293-1.831 1.992-1.568 3.271-4.002 3.271-6.734s-1.279-5.165-3.271-6.734c1.457-1.147 3.295-1.831 5.293-1.831 4.73 0 8.564 3.835 8.564 8.565z"></path>
</symbol>
<symbol id="icon-grant-thornton" viewBox="0 0 32 32">
<title>grant-thornton</title>
<path d="M19.7 9.6c0 0.1 0 0.2 0.1 0.2 0.5 0.3 1 0.7 1.5 1.1 0.2 0.2 0.4 0.4 0.6 0.6 0.1 0.1 0.3 0.2 0.5 0.2h3.4c0.2 0 0.4-0.2 0.3-0.4-0.5-1.1-1.2-2.1-2.1-3-0.7-0.7-1.6-1.3-2.5-1.8-0.1 0-0.2 0-0.2 0.1l-1.6 3z"></path>
<path d="M12.1 22c0-0.1 0-0.2-0.1-0.2-0.3-0.2-0.6-0.5-0.9-0.8-0.7-0.7-1.2-1.4-1.5-2.3-0.4-0.8-0.6-1.7-0.6-2.7s0.2-1.9 0.6-2.8c0.4-0.9 0.9-1.6 1.5-2.3 0.7-0.7 1.4-1.2 2.3-1.5 0.9-0.4 1.8-0.6 2.8-0.6 0.6 0 1.2 0.1 1.8 0.2 0.1 0 0.2 0 0.2-0.1l1.4-3c0-0.1 0-0.2-0.1-0.2-1.1-0.3-2.2-0.5-3.3-0.5-1.5 0-2.9 0.3-4.2 0.8s-2.4 1.3-3.4 2.3c-1 1-1.8 2.1-2.3 3.4-0.6 1.3-0.8 2.7-0.8 4.2s0.3 2.9 0.8 4.2c0.5 1.3 1.3 2.4 2.3 3.4 0.6 0.6 1.2 1.1 1.9 1.5 0.1 0.1 0.2 0 0.2-0.1l1.4-2.9z"></path>
<path d="M26.3 17.7h-8.1c-0.2 0-0.3 0.1-0.3 0.3v2.7c0 0.2 0.1 0.3 0.3 0.3h3.1c0 0 0 0 0 0-0.7 0.7-1.5 1.3-2.4 1.7s-1.8 0.6-2.8 0.6c-0.8 0-1.6-0.2-2.4-0.4-0.1 0-0.2 0-0.2 0.1l-1.4 3c0 0.1 0 0.2 0.1 0.2 1.2 0.5 2.6 0.7 3.9 0.7 1.5 0 2.9-0.3 4.2-0.9 1.1-0.5 2.1-1.1 3-1.9v2.5c0 0.2 0.1 0.3 0.3 0.3h2.7c0.2 0 0.3-0.1 0.3-0.3v-8.5c0-0.3-0.1-0.4-0.3-0.4z"></path>
</symbol>
<symbol id="icon-envelop" viewBox="0 0 32 32">
<title>envelop</title>
<path d="M30 4h-28c-1.1 0-2 0.9-2 2v20c0 1.1 0.9 2 2 2h28c1.1 0 2-0.9 2-2v-20c0-1.1-0.9-2-2-2zM11.662 19.546l-6 4.364c-0.2 0.145-0.431 0.215-0.661 0.215-0.348 0-0.691-0.161-0.911-0.463-0.365-0.502-0.254-1.206 0.248-1.572l6-4.364c0.502-0.365 1.206-0.254 1.572 0.248s0.254 1.206-0.248 1.572zM27.91 23.662c-0.22 0.303-0.563 0.463-0.911 0.463-0.23 0-0.461-0.070-0.661-0.215l-6-4.364c-0.503-0.366-0.614-1.069-0.248-1.572s1.069-0.613 1.572-0.248l6 4.364c0.502 0.366 0.613 1.069 0.248 1.572zM27.662 9.91l-11 8c-0.197 0.143-0.429 0.215-0.662 0.215s-0.464-0.072-0.662-0.215l-11-8c-0.502-0.365-0.614-1.069-0.248-1.572s1.069-0.614 1.572-0.248l10.338 7.519 10.338-7.519c0.502-0.365 1.206-0.254 1.572 0.248s0.254 1.206-0.248 1.572z"></path>
</symbol>
<symbol id="icon-envelop2" viewBox="0 0 32 32">
<title>envelop2</title>
<path d="M29.996 6c0.001 0.001 0.003 0.002 0.004 0.004v19.993c-0.001 0.001-0.002 0.003-0.004 0.004h-27.993c-0.001-0.001-0.003-0.002-0.004-0.004v-19.993c0.001-0.001 0.002-0.003 0.004-0.004h27.993zM30 4h-28c-1.1 0-2 0.9-2 2v20c0 1.1 0.9 2 2 2h28c1.1 0 2-0.9 2-2v-20c0-1.1-0.9-2-2-2v0z"></path>
<path d="M11.662 19.546l-6 4.364c-0.2 0.145-0.431 0.215-0.661 0.215-0.348 0-0.691-0.161-0.911-0.463-0.365-0.502-0.254-1.206 0.248-1.572l6-4.364c0.502-0.365 1.206-0.254 1.572 0.248s0.254 1.206-0.248 1.572z"></path>
<path d="M27.91 23.662c-0.22 0.303-0.563 0.463-0.911 0.463-0.23 0-0.461-0.070-0.661-0.215l-6-4.364c-0.503-0.366-0.614-1.069-0.248-1.572s1.069-0.613 1.572-0.248l6 4.364c0.502 0.366 0.613 1.069 0.248 1.572z"></path>
<path d="M27.662 9.91l-11 8c-0.197 0.144-0.429 0.215-0.662 0.215s-0.464-0.072-0.662-0.215l-11-8c-0.502-0.365-0.614-1.069-0.248-1.572s1.069-0.614 1.572-0.248l10.338 7.519 10.338-7.519c0.502-0.365 1.206-0.254 1.572 0.248s0.254 1.206-0.248 1.572v0z"></path>
</symbol>
<symbol id="icon-search3" viewBox="0 0 32 32">
<title>search3</title>
<path d="M31.008 27.231l-7.58-6.447c-0.784-0.705-1.622-1.029-2.299-0.998 1.789-2.096 2.87-4.815 2.87-7.787 0-6.627-5.373-12-12-12s-12 5.373-12 12 5.373 12 12 12c2.972 0 5.691-1.081 7.787-2.87-0.031 0.677 0.293 1.515 0.998 2.299l6.447 7.58c1.104 1.226 2.907 1.33 4.007 0.23s0.997-2.903-0.23-4.007zM12 20c-4.418 0-8-3.582-8-8s3.582-8 8-8 8 3.582 8 8-3.582 8-8 8z"></path>
</symbol>
<symbol id="icon-cross2" viewBox="0 0 32 32">
<title>cross2</title>
<path d="M27.914 6.914l-2.828-2.828-9.086 9.086-9.086-9.086-2.828 2.828 9.086 9.086-9.086 9.086 2.828 2.828 9.086-9.086 9.086 9.086 2.828-2.828-9.086-9.086z"></path>
</symbol>
<symbol id="icon-play3" viewBox="0 0 32 32">
<title>play3</title>
<path d="M16 0c-8.837 0-16 7.163-16 16s7.163 16 16 16 16-7.163 16-16-7.163-16-16-16zM16 29c-7.18 0-13-5.82-13-13s5.82-13 13-13 13 5.82 13 13-5.82 13-13 13zM12 9l12 7-12 7z"></path>
</symbol>
<symbol id="icon-arrow-right4" viewBox="0 0 32 32">
<title>arrow-right4</title>
<path d="M11 0l-2 2 14 14-14 14 2 2 16-16-16-16z"></path>
</symbol>
<symbol id="icon-arrow-down4" viewBox="0 0 32 32">
<title>arrow-down4</title>
<path d="M32 11l-2-2-14 14-14-14-2 2 16 16 16-16z"></path>
</symbol>
<symbol id="icon-arrow-left4" viewBox="0 0 32 32">
<title>arrow-left4</title>
<path d="M21 32l2-2-14-14 14-14-2-2-16 16 16 16z"></path>
</symbol>
<symbol id="icon-arrow-right8" viewBox="0 0 32 32">
<title>arrow-right8</title>
<path d="M19.414 27.414l10-10c0.781-0.781 0.781-2.047 0-2.828l-10-10c-0.781-0.781-2.047-0.781-2.828 0s-0.781 2.047 0 2.828l6.586 6.586h-19.172c-1.105 0-2 0.895-2 2s0.895 2 2 2h19.172l-6.586 6.586c-0.39 0.39-0.586 0.902-0.586 1.414s0.195 1.024 0.586 1.414c0.781 0.781 2.047 0.781 2.828 0z"></path>
</symbol>
<symbol id="icon-arrow-left8" viewBox="0 0 32 32">
<title>arrow-left8</title>
<path d="M12.586 27.414l-10-10c-0.781-0.781-0.781-2.047 0-2.828l10-10c0.781-0.781 2.047-0.781 2.828 0s0.781 2.047 0 2.828l-6.586 6.586h19.172c1.105 0 2 0.895 2 2s-0.895 2-2 2h-19.172l6.586 6.586c0.39 0.39 0.586 0.902 0.586 1.414s-0.195 1.024-0.586 1.414c-0.781 0.781-2.047 0.781-2.828 0z"></path>
</symbol>
<symbol id="icon-google-plus" viewBox="0 0 32 32">
<title>google-plus</title>
<path d="M10.181 14.294v3.494h5.775c-0.231 1.5-1.744 4.394-5.775 4.394-3.475 0-6.313-2.881-6.313-6.431s2.838-6.431 6.313-6.431c1.981 0 3.3 0.844 4.056 1.569l2.762-2.662c-1.775-1.656-4.075-2.662-6.819-2.662-5.631 0.006-10.181 4.556-10.181 10.188s4.55 10.181 10.181 10.181c5.875 0 9.775-4.131 9.775-9.95 0-0.669-0.075-1.181-0.163-1.688h-9.613z"></path>
<path d="M32 14h-3v-3h-3v3h-3v3h3v3h3v-3h3z"></path>
</symbol>
<symbol id="icon-facebook" viewBox="0 0 32 32">
<title>facebook</title>
<path d="M19 6h5v-6h-5c-3.86 0-7 3.14-7 7v3h-4v6h4v16h6v-16h5l1-6h-6v-3c0-0.542 0.458-1 1-1z"></path>
</symbol>
<symbol id="icon-instagram" viewBox="0 0 32 32">
<title>instagram</title>
<path d="M29 0h-26c-1.65 0-3 1.35-3 3v26c0 1.65 1.35 3 3 3h26c1.65 0 3-1.35 3-3v-26c0-1.65-1.35-3-3-3zM22 5c0-0.55 0.45-1 1-1h4c0.55 0 1 0.45 1 1v4c0 0.55-0.45 1-1 1h-4c-0.55 0-1-0.45-1-1v-4zM16 10c3.313 0 6 2.688 6 6s-2.688 6-6 6c-3.313 0-6-2.688-6-6s2.688-6 6-6zM28 27v0c0 0.55-0.45 1-1 1h-22c-0.55 0-1-0.45-1-1v0-13h2.2c-0.131 0.644-0.2 1.313-0.2 2 0 5.525 4.475 10 10 10s10-4.475 10-10c0-0.688-0.069-1.356-0.2-2h2.2v13z"></path>
</symbol>
<symbol id="icon-twitter" viewBox="0 0 32 32">
<title>twitter</title>
<path d="M32 7.075c-1.175 0.525-2.444 0.875-3.769 1.031 1.356-0.813 2.394-2.1 2.887-3.631-1.269 0.75-2.675 1.3-4.169 1.594-1.2-1.275-2.906-2.069-4.794-2.069-3.625 0-6.563 2.938-6.563 6.563 0 0.512 0.056 1.012 0.169 1.494-5.456-0.275-10.294-2.888-13.531-6.862-0.563 0.969-0.887 2.1-0.887 3.3 0 2.275 1.156 4.287 2.919 5.463-1.075-0.031-2.087-0.331-2.975-0.819 0 0.025 0 0.056 0 0.081 0 3.181 2.263 5.838 5.269 6.437-0.55 0.15-1.131 0.231-1.731 0.231-0.425 0-0.831-0.044-1.237-0.119 0.838 2.606 3.263 4.506 6.131 4.563-2.25 1.762-5.075 2.813-8.156 2.813-0.531 0-1.050-0.031-1.569-0.094 2.913 1.869 6.362 2.95 10.069 2.95 12.075 0 18.681-10.006 18.681-18.681 0-0.287-0.006-0.569-0.019-0.85 1.281-0.919 2.394-2.075 3.275-3.394z"></path>
</symbol>
<symbol id="icon-linkedin2" viewBox="0 0 32 32">
<title>linkedin2</title>
<path d="M12 12h5.535v2.837h0.079c0.77-1.381 2.655-2.837 5.464-2.837 5.842 0 6.922 3.637 6.922 8.367v9.633h-5.769v-8.54c0-2.037-0.042-4.657-3.001-4.657-3.005 0-3.463 2.218-3.463 4.509v8.688h-5.767v-18z"></path>
<path d="M2 12h6v18h-6v-18z"></path>
<path d="M8 7c0 1.657-1.343 3-3 3s-3-1.343-3-3c0-1.657 1.343-3 3-3s3 1.343 3 3z"></path>
</symbol>
<symbol id="icon-logo" viewBox="0 0 68 32">
<title>logo</title>
<path fill="#000" style="fill: var(--color1, #000)" d="M10.976 6.688h3.328v2.752h-3.328v-2.752z"></path>
<path fill="#000" style="fill: var(--color1, #000)" d="M10.976 10.656h3.328v10.368h-3.328v-10.368z"></path>
<path fill="#000" style="fill: var(--color1, #000)" d="M16.704 6.688h6.336c1.76 0 3.104 0.512 4.032 1.44 0.768 0.8 1.184 1.92 1.184 3.264v0.032c0 2.304-1.216 3.776-2.976 4.448l3.36 5.12h-3.52l-2.976-4.576h-2.4v4.576h-3.040v-14.304zM22.848 13.632c1.472 0 2.336-0.832 2.336-2.016v-0.032c0-1.344-0.896-2.048-2.4-2.048h-3.008v4.128h3.072z"></path>
<path fill="#000" style="fill: var(--color1, #000)" d="M39.68 6.752h1.152v5.248h-1.152v-5.248z"></path>
<path fill="#000" style="fill: var(--color1, #000)" d="M42.528 6.752h1.056l2.464 3.232v-3.232h1.12v5.248h-0.96l-2.56-3.328v3.328h-1.12v-5.248z"></path>
<path fill="#000" style="fill: var(--color1, #000)" d="M48.448 11.264l0.672-0.832c0.48 0.384 0.96 0.64 1.568 0.64 0.48 0 0.768-0.192 0.768-0.48v0c0-0.288-0.192-0.448-1.056-0.672-1.056-0.256-1.728-0.576-1.728-1.6v0c0-0.96 0.768-1.568 1.824-1.568 0.768 0 1.408 0.224 1.952 0.672l-0.608 0.864c-0.48-0.32-0.928-0.512-1.376-0.512s-0.672 0.192-0.672 0.448v0c0 0.352 0.224 0.448 1.12 0.704 1.056 0.288 1.664 0.672 1.664 1.568v0c0 1.056-0.8 1.632-1.92 1.632-0.768-0.032-1.568-0.32-2.208-0.864z"></path>
<path fill="#000" style="fill: var(--color1, #000)" d="M54.048 6.752h1.152v5.248h-1.152v-5.248z"></path>
<path fill="#000" style="fill: var(--color1, #000)" d="M56.896 6.752h2.048c1.664 0 2.784 1.12 2.784 2.624v0c0 1.472-1.152 2.624-2.784 2.624h-2.048v-5.248zM58.048 7.808v3.168h0.896c0.96 0 1.568-0.64 1.568-1.568v0c0-0.928-0.64-1.568-1.568-1.568h-0.896z"></path>
<path fill="#000" style="fill: var(--color1, #000)" d="M63.136 6.752h3.968v1.024h-2.816v1.088h2.464v1.024h-2.464v1.088h2.848v1.024h-4v-5.248z"></path>
<path fill="#000" style="fill: var(--color1, #000)" d="M39.616 15.776h2.4c0.672 0 1.184 0.192 1.536 0.544 0.288 0.288 0.448 0.704 0.448 1.216v0c0 0.832-0.448 1.376-1.12 1.632l1.28 1.888h-1.344l-1.12-1.696h-0.896v1.696h-1.152v-5.28zM41.952 18.304c0.576 0 0.896-0.288 0.896-0.736v0c0-0.48-0.352-0.736-0.896-0.736h-1.152v1.504h1.152z"></path>
<path fill="#000" style="fill: var(--color1, #000)" d="M45.408 15.776h3.968v1.024h-2.816v1.056h2.496v1.024h-2.496v1.12h2.848v1.024h-4v-5.248z"></path>
<path fill="#000" style="fill: var(--color1, #000)" d="M52.032 16.832h-1.6v-1.056h4.352v1.056h-1.6v4.192h-1.152v-4.192z"></path>
<path fill="#000" style="fill: var(--color1, #000)" d="M57.184 15.712h1.056l2.24 5.28h-1.216l-0.48-1.184h-2.208l-0.48 1.184h-1.184l2.272-5.28zM58.4 18.816l-0.704-1.696-0.704 1.696h1.408z"></path>
<path fill="#000" style="fill: var(--color1, #000)" d="M61.728 15.776h1.152v5.248h-1.152v-5.248z"></path>
<path fill="#000" style="fill: var(--color1, #000)" d="M64.576 15.776h1.152v4.192h2.624v1.056h-3.776v-5.248z"></path>
<path fill="#f7941e" style="fill: var(--color5, #f7941e)" d="M35.328 3.328v8l-3.328-2.4v-5.6z"></path>
<path fill="#92278f" style="fill: var(--color6, #92278f)" d="M35.328 11.328v20.672l-3.328-4.32h-4.576l-7.232-3.328h11.808v-15.424z"></path>
<path fill="#ec008c" style="fill: var(--color7, #ec008c)" d="M27.424 27.68h-19.776v-3.328h12.544z"></path>
<path fill="#f9ed32" style="fill: var(--color8, #f9ed32)" d="M26.624 0l-6.304 3.328h-12.672v6.72l-3.36 1.76v-11.808z"></path>
<path fill="#00a79d" style="fill: var(--color9, #00a79d)" d="M32 0v3.328h-11.68l6.304-3.328z"></path>
<path fill="#00a79d" style="fill: var(--color9, #00a79d)" d="M7.648 10.048v14.304h-7.648l4.288-3.328v-9.216z"></path>
</symbol>
<symbol id="icon-vend" viewBox="0 0 32 32">
<title>vend</title>
<path d="M30.856 15.414l-3.184-5.342c-0.218-0.428-0.658-0.696-1.136-0.696h-24.254c-0.71 0-1.282 0.572-1.282 1.282v10.684c0 0.71 0.572 1.282 1.282 1.282h24.254c0.478 0 0.918-0.27 1.136-0.692l3.184-5.342c0.192-0.368 0.192-0.808 0-1.176zM8.3 14.764l-2.454 5.048c-0.048 0.094-0.184 0.098-0.23 0l-2.47-5.048c-0.030-0.054 0.012-0.124 0.076-0.124h0.948c0.034 0 0.064 0.022 0.076 0.052l1.482 3.214 1.47-3.214c0.016-0.030 0.046-0.052 0.080-0.052h0.944c0.064 0 0.104 0.066 0.078 0.124zM13.47 17.12l-0.008 0.226c0 0.048-0.038 0.082-0.086 0.082h-3.862c0 0.492 0.146 0.902 0.432 1.23 0.302 0.342 0.7 0.514 1.186 0.514 0.612 0 1.21-0.402 1.518-0.924 0.026-0.048 0.076-0.060 0.12-0.034l0.636 0.372c0.042 0.026 0.056 0.082 0.030 0.12-0.572 0.898-1.376 1.342-2.418 1.342-0.76 0-1.376-0.274-1.846-0.824-0.458-0.54-0.684-1.258-0.684-2.16 0-0.32 0.068-0.654 0.206-1.004 0.252-0.65 0.68-1.098 1.278-1.354 0.316-0.132 0.662-0.2 1.048-0.2 1.094 0 1.834 0.462 2.21 1.38 0.176 0.43 0.258 0.84 0.24 1.234zM18.83 19.782c0 0.048-0.038 0.086-0.086 0.086h-0.828c-0.048 0-0.086-0.038-0.086-0.086v-3.068c0-0.444-0.076-0.77-0.236-0.974-0.178-0.236-0.482-0.356-0.914-0.356-0.86 0-1.29 0.542-1.29 1.628v2.77c0 0.048-0.038 0.086-0.086 0.086h-0.824c-0.048 0-0.086-0.038-0.086-0.086v-5.056c0-0.048 0.038-0.086 0.086-0.086h0.824c0.048 0 0.086 0.038 0.086 0.086v0.658c0.384-0.59 0.922-0.884 1.614-0.884 1.214 0 1.824 0.744 1.824 2.236v3.046zM25.018 19.782c0 0.048-0.038 0.086-0.086 0.086h-0.83c-0.048 0-0.086-0.038-0.086-0.086v-0.764c-0.454 0.684-1.048 1.030-1.786 1.030-0.82 0-1.462-0.308-1.924-0.918-0.406-0.538-0.612-1.15-0.612-1.82 0-0.526 0.102-1 0.304-1.424 0.226-0.47 0.552-0.824 0.974-1.064 0.372-0.21 0.778-0.316 1.21-0.316 0.358 0 0.714 0.098 1.060 0.294 0.35 0.196 0.602 0.448 0.77 0.76v-3.548c0.004-0.048 0.042-0.086 0.090-0.086h0.83c0.048 0 0.086 0.038 0.086 0.086v7.77zM28.224 16.642c-0.354 0-0.642-0.286-0.642-0.642s0.286-0.642 0.642-0.642 0.64 0.288 0.64 0.642-0.286 0.642-0.64 0.642z"></path>
<path d="M12.482 16.666h-2.922c0.068-0.402 0.24-0.718 0.512-0.952 0.274-0.236 0.612-0.35 1.018-0.35 0.38 0 0.7 0.124 0.954 0.376 0.238 0.238 0.382 0.544 0.438 0.926z"></path>
<path d="M23.898 17.282c0 0.312-0.060 0.598-0.18 0.868-0.278 0.628-0.778 0.94-1.5 0.94-0.372 0-0.676-0.098-0.914-0.304-0.432-0.368-0.646-0.864-0.646-1.482 0-0.3 0.060-0.59 0.176-0.872 0.274-0.654 0.74-0.982 1.41-0.982 0.324 0 0.616 0.076 0.872 0.23 0.522 0.312 0.782 0.85 0.782 1.602z"></path>
</symbol>
</defs>
</svg>
